<?xml version="1.0" encoding="utf-8"?>
<!-- Svg Vector Icons : http://www.sfont.cn -->
<!DOCTYPE svg PUBLIC "-//W3C//DTD SVG 1.1//EN" "http://www.w3.org/Graphics/SVG/1.1/DTD/svg11.dtd">
<svg version="1.1" xmlns="http://www.w3.org/2000/svg" xmlns:xlink="http://www.w3.org/1999/xlink" x="0px" y="0px" viewBox="0 0 1000 1000" enable-background="new 0 0 1000 1000" xml:space="preserve">
<metadata> Svg Vector Icons : http://www.sfont.cn </metadata>
<g><g transform="translate(0.000000,512.000000) scale(0.100000,-0.100000)"><path d="M3897.5,4997.2c-231.6-44-476.5-218.2-602.8-428.7c-116.7-193.3-132-294.7-132-872.7l-1.9-512.9h-612.4h-612.4V-797.7v-3980.6h3062h3062v3980.6V3183h-612.4h-612.4v512.9c0,398.1-5.7,537.8-28.7,625.8c-90,340.6-382.7,614.3-725.3,677.5C5937.6,5025.9,4035.3,5024,3897.5,4997.2z M6050.5,4365.7c57.4-28.7,101.4-70.8,128.2-120.6c42.1-74.6,44-95.7,44-568.4V3183H4997.9H3773.1v484.2c0,463.1,1.9,488,44,568.4c30.6,63.1,65.1,97.6,128.2,130.1c84.2,42.1,86.1,42.1,1052.6,42.1S5966.3,4407.8,6050.5,4365.7z"/><path d="M959.9,3169.6C602,3110.2,288.1,2844.2,158,2488.3l-49.8-137.8L102.5-746C96.8-4181.2,89.1-3966.8,225-4225.2c179.9-342.6,543.5-551.2,960.7-553.1h137.8v3980.6V3183l-156.9-1.9C1078.5,3179.1,986.7,3173.4,959.9,3169.6z"/><path d="M8672.3-795.7v-3982.5h130.1c526.3,0,964.6,336.8,1066,817.2c42.1,200.9,42.1,6158.5,0,6338.4c-59.3,245-204.8,465-403.8,606.7C9279,3116,9127.8,3167.7,8879,3179.1l-206.7,9.6V-795.7z"/></g></g>
</svg>